<?xml version="1.0" encoding="UTF-8"?>
<svg id="Layer_2" data-name="Layer 2" xmlns="http://www.w3.org/2000/svg" width="15.87" height="17.78" viewBox="0 0 15.87 17.78">
  <defs>
    <style>
      .cls-1 {
        fill: #fff;
        fill-rule: evenodd;
        stroke-width: 0px;
      }
    </style>
  </defs>
  <g id="Layer_1-2" data-name="Layer 1">
    <path class="cls-1" d="M9.29,13.03c-.05,1.37-1.21,2.47-2.62,2.47-.32,0-.63-.06-.92-.16.29.11.6.16.92.16,1.42,0,2.57-1.1,2.62-2.47V.78h2.3c.22,1.16.93,2.16,1.91,2.79,0,0,0,0,0,0,.68.43,1.5.69,2.37.69v.68h0v2.38c-1.62,0-3.12-.51-4.35-1.37v6.21c0,3.1-2.58,5.63-5.76,5.63-1.23,0-2.36-.38-3.3-1.02,0,0,0,0,0,0-1.48-1.02-2.46-2.7-2.46-4.61,0-3.1,2.58-5.63,5.76-5.63.26,0,.52.02.78.05v.72c-2.9.07-5.27,2.23-5.59,5,.32-2.76,2.69-4.93,5.59-5v2.4c-.25-.08-.51-.12-.78-.12-1.45,0-2.63,1.15-2.63,2.57,0,.99.57,1.84,1.41,2.27h0c.36.19.78.3,1.22.3,1.42,0,2.57-1.1,2.62-2.47V0h3.13c0,.26.03.52.07.78h-2.29v12.25Z"/>
  </g>
</svg>