<svg width="100" height="100" viewBox="0 0 100 100" fill="none" xmlns="http://www.w3.org/2000/svg">
<path d="M50.1833 33.6909C51.0528 33.825 51.9552 33.5985 52.5778 32.9932L58.8392 26.9047C61.8541 23.973 66.7423 23.973 69.7572 26.9047C72.7721 29.8363 72.7721 34.5895 69.7572 37.5211L55.7974 51.0953C53.5251 53.3049 50.1887 53.8491 47.3922 52.7281C46.2077 52.2532 44.7719 52.2778 43.8659 53.1587L40.2307 56.6935C39.2261 57.6704 39.2546 59.2813 40.4313 60.0556C47.3173 64.5871 56.7575 63.888 62.8555 57.9585L76.8153 44.3842C83.7282 37.6622 83.7282 26.7636 76.8153 20.0415C69.9023 13.3195 58.6941 13.3195 51.7811 20.0415L37.8213 33.6158C36.8011 34.6078 35.9314 35.6909 35.2123 36.8381C34.4671 38.0269 35.8449 38.8793 36.8574 37.8948C40.4864 34.366 45.4747 32.9647 50.1833 33.6909Z" fill="#A8CFD4"/>
<path d="M48.8167 66.3091C47.9472 66.175 47.0448 66.4015 46.4222 67.0068L40.1608 73.0953C37.1459 76.027 32.2577 76.027 29.2428 73.0953C26.2279 70.1637 26.2279 65.4105 29.2428 62.4789L43.2026 48.9047C45.4749 46.6951 48.8113 46.1509 51.6078 47.2719C52.7923 47.7468 54.2281 47.7222 55.1341 46.8413L58.7693 43.3065C59.7739 42.3296 59.7454 40.7187 58.5687 39.9444C51.6827 35.4129 42.2425 36.112 36.1445 42.0415L22.1847 55.6158C15.2718 62.3378 15.2718 73.2364 22.1847 79.9585C29.0977 86.6805 40.3059 86.6805 47.2189 79.9585L61.1787 66.3842C62.1989 65.3922 63.0686 64.3091 63.7877 63.1619C64.533 61.9731 63.1551 61.1207 62.1426 62.1052C58.5136 65.634 53.5253 67.0353 48.8167 66.3091Z" fill="#A8CFD4"/>
</svg>
